<?xml version="1.0" standalone="no"?>
<!DOCTYPE svg PUBLIC "-//W3C//DTD SVG 20010904//EN"
 "http://www.w3.org/TR/2001/REC-SVG-20010904/DTD/svg10.dtd">
<svg version="1.0" xmlns="http://www.w3.org/2000/svg"
 width="700.000000pt" height="700.000000pt" viewBox="0 0 700.000000 700.000000"
 preserveAspectRatio="xMidYMid meet">
<metadata>
Created by potrace 1.14, written by Peter Selinger 2001-2017
</metadata>
<g transform="translate(0.000000,700.000000) scale(0.100000,-0.100000)"
fill="#000000" stroke="none">
<path d="M3280 6994 c-19 -2 -84 -9 -145 -14 -639 -62 -1264 -315 -1795 -726
-149 -115 -481 -446 -595 -594 -410 -532 -653 -1132 -727 -1795 -17 -155 -17
-575 0 -730 75 -673 332 -1300 748 -1820 114 -143 339 -372 484 -494 478 -401
1050 -667 1660 -770 215 -37 332 -46 590 -46 261 0 380 10 595 47 66 11 136
22 155 24 111 10 420 107 625 194 929 396 1643 1175 1958 2135 44 132 86 295
92 350 2 22 13 92 24 155 37 215 46 330 45 595 0 331 -25 543 -99 843 -157
637 -480 1193 -966 1667 -554 539 -1235 863 -2019 961 -117 15 -552 27 -630
18z m491 -1619 c414 -58 789 -251 1089 -561 284 -293 455 -644 516 -1055 22
-155 15 -469 -15 -613 -61 -296 -171 -544 -341 -776 -80 -109 -281 -310 -390
-390 -257 -189 -553 -310 -868 -355 -164 -23 -469 -16 -616 14 -382 79 -691
240 -959 500 -321 311 -509 685 -568 1131 -15 115 -12 383 6 501 63 422 249
786 557 1085 115 112 168 155 285 232 380 249 844 351 1304 287z"/>
<path d="M3776 3670 c-300 -225 -549 -410 -553 -410 -4 0 -125 117 -268 260
-234 233 -264 260 -293 260 -60 0 -122 -41 -153 -102 -42 -83 -51 -70 294
-416 171 -172 324 -320 339 -328 32 -17 101 -18 131 -3 11 7 289 213 617 459
391 293 599 456 608 474 28 61 7 143 -47 189 -26 21 -43 27 -81 27 -49 0 -50
-1 -594 -410z"/>
</g>
</svg>
